<svg width="319.08mm" height="85.876mm" version="1.1" viewBox="0 0 319.08 85.876" xmlns="http://www.w3.org/2000/svg">
 <g transform="matrix(1.33 0 0 1.33 -14.554 -3.639)" stroke-width=".26458" aria-label="Stem">
  <path d="m112.99 56.738q-4.7466 0-9.1281-1.5214-4.3206-1.5214-6.694-4.0164l1.7648-3.4687q2.3125 2.3125 6.1463 3.773 3.8338 1.3996 7.911 1.3996 5.7203 0 8.5804-2.069 2.8602-2.1299 2.8602-5.4769 0-2.5559-1.5822-4.0772-1.5214-1.5214-3.773-2.3125-2.2516-0.85196-6.268-1.8256-4.8075-1.2171-7.6676-2.3125-2.8602-1.1562-4.9292-3.4687-2.0082-2.3125-2.0082-6.268 0-3.2253 1.7039-5.842 1.7039-2.6776 5.2335-4.2598 3.5295-1.5822 8.763-1.5822 3.6512 0 7.1199 1.0345 3.5295 0.97367 6.0854 2.7384l-1.5214 3.5904q-2.6776-1.7648-5.7203-2.6167-3.0427-0.91281-5.9637-0.91281-5.5986 0-8.4587 2.1908-2.7993 2.1299-2.7993 5.5377 0 2.5559 1.5214 4.1381 1.5822 1.5214 3.8947 2.3733 2.3733 0.7911 6.3288 1.7648 4.6858 1.1562 7.5459 2.3125 2.921 1.0954 4.9292 3.4078 2.0082 2.2516 2.0082 6.1463 0 3.2253-1.7648 5.9029-1.7039 2.6167-5.2943 4.1989-3.5904 1.5214-8.8239 1.5214z"/>
  <path d="m154.63 54.425q-1.2171 1.0954-3.0427 1.7039-1.7648 0.54769-3.7121 0.54769-4.5032 0-6.9374-2.4342t-2.4342-6.8765v-19.352h-5.7203v-3.6512h5.7203v-6.9982h4.3206v6.9982h9.7367v3.6512h-9.7367v19.108q0 2.8601 1.3996 4.3815 1.4605 1.4605 4.1381 1.4605 1.3388 0 2.5559-0.42598 1.2779-0.42598 2.1908-1.2171z"/>
  <path d="m189.18 41.707h-26.776q0.36513 4.99 3.8338 8.0936 3.4687 3.0427 8.763 3.0427 2.9818 0 5.4769-1.0345 2.495-1.0954 4.3206-3.1644l2.4342 2.7993q-2.1299 2.5559-5.3552 3.8947-3.1644 1.3388-6.9982 1.3388-4.9292 0-8.763-2.069-3.773-2.1299-5.9029-5.842t-2.1299-8.3979 2.0082-8.3979q2.069-3.7121 5.5986-5.7811 3.5904-2.069 8.0328-2.069t7.9719 2.069q3.5296 2.069 5.5377 5.7811 2.0082 3.6513 2.0082 8.3979zm-15.457-13.875q-4.6249 0-7.7893 2.9819-3.1036 2.921-3.5295 7.6676h22.699q-0.42598-4.7466-3.5904-7.6676-3.1036-2.9819-7.7893-2.9819z"/>
  <path d="m237.95 24.12q6.0246 0 9.4324 3.4687 3.4687 3.4687 3.4687 10.224v18.561h-4.3206v-18.135q0-4.99-2.4342-7.6068-2.3733-2.6167-6.7548-2.6167-4.99 0-7.8502 3.1036-2.8601 3.0427-2.8601 8.4587v16.796h-4.3206v-18.135q0-4.99-2.4342-7.6068-2.3733-2.6167-6.8157-2.6167-4.9292 0-7.8502 3.1036-2.8602 3.0427-2.8602 8.4587v16.796h-4.3206v-32.009h4.1381v5.842q1.7039-2.921 4.7466-4.5032t6.9982-1.5822q4.0164 0 6.9374 1.7039 2.9819 1.7039 4.4424 5.0509 1.7648-3.1644 5.0509-4.9292 3.347-1.8256 7.6068-1.8256z"/>
 </g>
 <g transform="translate(.090498 .068663)">
  <circle transform="rotate(-90)" cx="-42.881" cy="42.801" r="29.923" fill="#000005" opacity=".99" stroke-width="1.2159" style="paint-order:normal"/>
  <g shape-rendering="auto">
   <path d="m42.017-0.065054c-10.505 0.19008-20.654 4.2397-28.432 11.476-0.92994 0.86509-2.3618 2.3478-3.1939 3.3074-8.104 9.3458-11.778 21.754-10.072 34.006 0.17524 1.258 1.389 2.0719 2.6359 1.8295l2.0139-0.39157c1.2469-0.24244 2.0535-1.4496 1.8906-2.7091-1.3097-10.122 1.7135-20.33 8.3248-28.106 0.82266-0.96761 2.255-2.4509 3.1933-3.3068 7.5405-6.8789 17.636-10.257 27.798-9.302 1.2645 0.11887 2.4427-0.72941 2.6415-1.984l0.32116-2.027c0.19878-1.2546-0.65701-2.4392-1.9204-2.5701-0.20204-0.020932-0.40408-0.040411-0.6061-0.058445-1.2651-0.11293-3.325-0.18626-4.5949-0.16328z" color="#000000" color-rendering="auto" dominant-baseline="auto" image-rendering="auto" solid-color="#000000" stop-color="#000000" style="font-feature-settings:normal;font-variant-alternates:normal;font-variant-caps:normal;font-variant-ligatures:normal;font-variant-numeric:normal;font-variant-position:normal;isolation:auto;mix-blend-mode:normal;paint-order:normal;shape-padding:0;text-decoration-color:#000000;text-decoration-line:none;text-decoration-style:solid;text-indent:0;text-orientation:mixed;text-transform:none;white-space:normal"/>
   <path d="m80.385 63.675c5.0876-9.1922 6.6552-20.007 4.2779-30.361-0.28422-1.2379-0.8524-3.2193-1.2674-4.4197-4.0417-11.691-12.95-21.077-24.414-25.725-1.1771-0.47722-2.4888 0.16698-2.9023 1.3681l-0.66782 1.9398c-0.41349 1.2011 0.22858 2.5032 1.4009 2.9918 9.421 3.927 16.749 11.649 20.178 21.262 0.42664 1.1963 0.99502 3.1783 1.2672 4.4189 2.1871 9.9697 0.06506 20.402-5.8432 28.725-0.73519 1.0356-0.58968 2.4802 0.39745 3.2796l1.5948 1.2916c0.98713 0.79945 2.4409 0.6506 3.1859-0.37804 0.11915-0.16451 0.23704-0.32974 0.35366-0.49567 0.73034-1.0391 1.8238-2.7864 2.4389-3.8977z" color="#000000" color-rendering="auto" dominant-baseline="auto" image-rendering="auto" solid-color="#000000" stop-color="#000000" style="font-feature-settings:normal;font-variant-alternates:normal;font-variant-caps:normal;font-variant-ligatures:normal;font-variant-numeric:normal;font-variant-position:normal;isolation:auto;mix-blend-mode:normal;paint-order:normal;shape-padding:0;text-decoration-color:#000000;text-decoration-line:none;text-decoration-style:solid;text-indent:0;text-orientation:mixed;text-transform:none;white-space:normal"/>
   <path d="m6.0007 65.033c5.4169 9.0021 13.999 15.767 24.154 18.885 1.2142 0.37281 3.2142 0.87144 4.4613 1.1123 12.146 2.3454 24.729-0.6765 34.486-8.2806 1.0018-0.78075 1.0998-2.2389 0.2664-3.1975l-1.346-1.5483c-0.83341-0.95863-2.2821-1.0536-3.2914-0.28273-8.1114 6.1954-18.463 8.681-28.503 6.8435-1.2493-0.22864-3.25-0.72745-4.4604-1.112-9.7276-3.0908-17.701-10.145-21.955-19.423-0.52929-1.1545-1.8531-1.7508-3.039-1.2956l-1.916 0.73536c-1.1859 0.45515-1.7839 1.7886-1.2656 2.9481 0.082895 0.18544 0.16704 0.37015 0.25243 0.55412 0.53474 1.152 1.5012 2.9727 2.156 4.0609z" color="#000000" color-rendering="auto" dominant-baseline="auto" image-rendering="auto" solid-color="#000000" stop-color="#000000" style="font-feature-settings:normal;font-variant-alternates:normal;font-variant-caps:normal;font-variant-ligatures:normal;font-variant-numeric:normal;font-variant-position:normal;isolation:auto;mix-blend-mode:normal;paint-order:normal;shape-padding:0;text-decoration-color:#000000;text-decoration-line:none;text-decoration-style:solid;text-indent:0;text-orientation:mixed;text-transform:none;white-space:normal"/>
  </g>
 </g>
</svg>
