<svg width="242.39mm" height="68.389mm" version="1.1" viewBox="0 0 242.39 68.389" xmlns="http://www.w3.org/2000/svg">
 <g transform="translate(-70.806 -114.31)">
  <circle cx="105" cy="148.5" r="24.609" fill="#000005" opacity=".99" style="paint-order:normal"/>
  <circle cx="105" cy="148.5" r="31.9" fill="none" stroke="#000" stroke-dasharray="36.71200333, 4.58900042" stroke-dashoffset="11.014" stroke-linejoin="round" stroke-width="4.589" style="paint-order:normal"/>
 </g>
 <g transform="translate(-8.4667 -3.2689e-6)" stroke-width=".26458" aria-label="Stem">
  <path d="m112.99 56.738q-4.7466 0-9.1281-1.5214-4.3206-1.5214-6.694-4.0164l1.7648-3.4687q2.3125 2.3125 6.1463 3.773 3.8338 1.3996 7.911 1.3996 5.7203 0 8.5804-2.069 2.8602-2.1299 2.8602-5.4769 0-2.5559-1.5822-4.0772-1.5214-1.5214-3.773-2.3125-2.2516-0.85196-6.268-1.8256-4.8075-1.2171-7.6676-2.3125-2.8602-1.1562-4.9292-3.4687-2.0082-2.3125-2.0082-6.268 0-3.2253 1.7039-5.842 1.7039-2.6776 5.2335-4.2598 3.5295-1.5822 8.763-1.5822 3.6512 0 7.1199 1.0345 3.5295 0.97367 6.0854 2.7384l-1.5214 3.5904q-2.6776-1.7648-5.7203-2.6167-3.0427-0.91281-5.9637-0.91281-5.5986 0-8.4587 2.1908-2.7993 2.1299-2.7993 5.5377 0 2.5559 1.5214 4.1381 1.5822 1.5214 3.8947 2.3733 2.3733 0.7911 6.3288 1.7648 4.6858 1.1562 7.5459 2.3125 2.921 1.0954 4.9292 3.4078 2.0082 2.2516 2.0082 6.1463 0 3.2253-1.7648 5.9029-1.7039 2.6167-5.2943 4.1989-3.5904 1.5214-8.8239 1.5214z"/>
  <path d="m154.63 54.425q-1.2171 1.0954-3.0427 1.7039-1.7648 0.54769-3.7121 0.54769-4.5032 0-6.9374-2.4342-2.4342-2.4342-2.4342-6.8765v-19.352h-5.7203v-3.6512h5.7203v-6.9982h4.3206v6.9982h9.7367v3.6512h-9.7367v19.108q0 2.8601 1.3996 4.3815 1.4605 1.4605 4.1381 1.4605 1.3388 0 2.5559-0.42598 1.2779-0.42598 2.1908-1.2171z"/>
  <path d="m189.18 41.707h-26.776q0.36513 4.99 3.8338 8.0936 3.4687 3.0427 8.763 3.0427 2.9818 0 5.4769-1.0345 2.495-1.0954 4.3206-3.1644l2.4342 2.7993q-2.1299 2.5559-5.3552 3.8947-3.1644 1.3388-6.9982 1.3388-4.9292 0-8.763-2.069-3.773-2.1299-5.9029-5.842-2.1299-3.7121-2.1299-8.3979t2.0082-8.3979q2.069-3.7121 5.5986-5.7811 3.5904-2.069 8.0328-2.069 4.4424 0 7.9719 2.069 3.5296 2.069 5.5377 5.7811 2.0082 3.6513 2.0082 8.3979zm-15.457-13.875q-4.6249 0-7.7893 2.9819-3.1036 2.921-3.5295 7.6676h22.699q-0.42598-4.7466-3.5904-7.6676-3.1036-2.9819-7.7893-2.9819z"/>
  <path d="m237.95 24.12q6.0246 0 9.4324 3.4687 3.4687 3.4687 3.4687 10.224v18.561h-4.3206v-18.135q0-4.99-2.4342-7.6068-2.3733-2.6167-6.7548-2.6167-4.99 0-7.8502 3.1036-2.8601 3.0427-2.8601 8.4587v16.796h-4.3206v-18.135q0-4.99-2.4342-7.6068-2.3733-2.6167-6.8157-2.6167-4.9292 0-7.8502 3.1036-2.8602 3.0427-2.8602 8.4587v16.796h-4.3206v-32.009h4.1381v5.842q1.7039-2.921 4.7466-4.5032 3.0427-1.5822 6.9982-1.5822 4.0164 0 6.9374 1.7039 2.9819 1.7039 4.4424 5.0509 1.7648-3.1644 5.0509-4.9292 3.347-1.8256 7.6068-1.8256z"/>
 </g>
</svg>
