<svg width="394.03" height="98.738" version="1.1" viewBox="0 0 394.03 98.738" xmlns="http://www.w3.org/2000/svg">
 <defs>
  <clipPath id="k">
   <path d="m232.92 142.29c-3.202-3.738-7.589-8.857-8.07-16.806-0.332-5.541 1.426-9.226 3.582-13.133l0.485-0.879 0.878 0.488c3.611 2.012 7.705 4.291 14.044 4.545 0.413 0.016 0.833 0.024 1.261 0.024 4.599 0 9.629-0.942 13.457-2.519l1.51-0.623-0.132 1.628c-1.151 14.132-11.718 25.671-25.698 28.064l-0.56 0.097z"/>
  </clipPath>
  <linearGradient id="p" x2="1" gradientTransform="matrix(22.894,-27.554,-27.554,-22.894,229.6,135.5)" gradientUnits="userSpaceOnUse">
   <stop stop-color="#f26566" offset="0"/>
   <stop stop-color="#f26566" offset=".79909"/>
   <stop stop-color="#993f40" offset="1"/>
  </linearGradient>
  <clipPath id="l">
   <path d="m196.59 118.27-0.083-0.552 0.864-0.733c3.73-3.174 8.838-7.522 16.728-8.002 0.449-0.028 0.884-0.04 1.31-0.04 5.328 0 8.901 1.991 12.684 4.098l1.022 0.571-0.481 0.872c-2.003 3.63-3.637 7.042-3.337 12.046 0.44 7.278 4.574 12.103 7.593 15.626l1.521 1.782-1.716 0.307c-1.719 0.309-3.506 0.465-5.316 0.465-15.275 0-28.511-11.367-30.789-26.44"/>
  </clipPath>
  <linearGradient id="m" x2="1" gradientTransform="matrix(26.128,26.598,26.598,-26.128,205.43,112.54)" gradientUnits="userSpaceOnUse">
   <stop stop-color="#4bd0f9" offset="0"/>
   <stop stop-color="#4bd0f9" offset=".79909"/>
   <stop stop-color="#44bbe0" offset="1"/>
  </linearGradient>
  <clipPath id="i">
   <path d="m241.95 116.97c-6.818-0.272-11.131-2.676-14.935-4.795l-0.87-0.485 0.96-1.738c2.146-3.857 4.365-7.845 4.617-14.192 0.195-4.741-0.721-10.289-2.39-14.478l-0.612-1.535 1.643 0.169c15.898 1.636 27.888 14.948 27.888 30.965 0 0.879-0.042 1.759-0.125 2.615l-0.057 0.6-0.558 0.229c-4.058 1.673-9.371 2.672-14.214 2.672-0.457 0-0.907-0.01-1.347-0.027"/>
  </clipPath>
  <linearGradient id="n" x2="1" gradientTransform="matrix(18.355,36.362,36.362,-18.355,229.23,81.855)" gradientUnits="userSpaceOnUse">
   <stop stop-color="#e0b546" offset="0"/>
   <stop stop-color="#fbcb4e" offset=".43647"/>
   <stop stop-color="#fbcb4e" offset="1"/>
  </linearGradient>
  <clipPath id="j">
   <path d="m194.93 117.1c-0.232-1.567-0.35-3.143-0.35-4.685 0-17.171 13.97-31.141 31.14-31.141 1.171 0 2.237 0.057 3.256 0.176l0.593 0.07 0.22 0.554c1.767 4.434 2.736 10.298 2.53 15.3-0.27 6.822-2.712 11.211-4.867 15.084l-0.96 1.739-1.029-0.573c-3.55-1.979-6.903-3.848-11.716-3.848-0.386 0-0.782 0.012-1.187 0.036-7.221 0.441-12.035 4.537-15.551 7.528l-1.814 1.539z"/>
  </clipPath>
  <linearGradient id="o" x2="1" gradientTransform="matrix(23.913,-29.677,-29.677,-23.913,203.41,116.67)" gradientUnits="userSpaceOnUse">
   <stop stop-color="#1cc977" offset="0"/>
   <stop stop-color="#20e889" offset=".20091"/>
   <stop stop-color="#20e889" offset="1"/>
  </linearGradient>
 </defs>
 <g transform="matrix(1.3333 0 0 -1.3333 -254.26 198.68)">
  <path transform="matrix(.75 0 0 -.75 192.76 146.73)" d="m95.699 46.328c0 27.267-22.105 49.37-49.37 49.37-27.267 0-49.371-22.103-49.371-49.37s22.104-49.37 49.371-49.37c27.265 0 49.37 22.103 49.37 49.37" fill="#0c1b33"/>
 </g>
 <g transform="translate(2.7467 3.0386)">
  <g transform="matrix(1.3333,0,0,-1.3333,-257.01,195.64)" clip-path="url(#i)">
   <path d="m241.95 116.97c-6.818-0.272-11.131-2.676-14.935-4.795l-0.87-0.485 0.96-1.738c2.146-3.857 4.365-7.845 4.617-14.192 0.195-4.741-0.721-10.289-2.39-14.478l-0.612-1.535 1.643 0.169c15.898 1.636 27.888 14.948 27.888 30.965 0 0.879-0.042 1.759-0.125 2.615l-0.057 0.6-0.558 0.229c-4.058 1.673-9.371 2.672-14.214 2.672-0.457 0-0.907-0.01-1.347-0.027" fill="url(#n)"/>
  </g>
  <g transform="matrix(1.3333,0,0,-1.3333,-257.01,195.64)" clip-path="url(#k)">
   <path d="m232.92 142.29c-3.202-3.738-7.589-8.857-8.07-16.806-0.332-5.541 1.426-9.226 3.582-13.133l0.485-0.879 0.878 0.488c3.611 2.012 7.705 4.291 14.044 4.545 0.413 0.016 0.833 0.024 1.261 0.024 4.599 0 9.629-0.942 13.457-2.519l1.51-0.623-0.132 1.628c-1.151 14.132-11.718 25.671-25.698 28.064l-0.56 0.097z" fill="url(#p)"/>
  </g>
  <g transform="matrix(1.3333,0,0,-1.3333,-257.01,195.64)" clip-path="url(#l)">
   <path d="m196.59 118.27-0.083-0.552 0.864-0.733c3.73-3.174 8.838-7.522 16.728-8.002 0.449-0.028 0.884-0.04 1.31-0.04 5.328 0 8.901 1.991 12.684 4.098l1.022 0.571-0.481 0.872c-2.003 3.63-3.637 7.042-3.337 12.046 0.44 7.278 4.574 12.103 7.593 15.626l1.521 1.782-1.716 0.307c-1.719 0.309-3.506 0.465-5.316 0.465-15.275 0-28.511-11.367-30.789-26.44" fill="url(#m)"/>
  </g>
  <g transform="matrix(1.3333,0,0,-1.3333,-257.01,195.64)" clip-path="url(#j)">
   <path d="m194.93 117.1c-0.232-1.567-0.35-3.143-0.35-4.685 0-17.171 13.97-31.141 31.14-31.141 1.171 0 2.237 0.057 3.256 0.176l0.593 0.07 0.22 0.554c1.767 4.434 2.736 10.298 2.53 15.3-0.27 6.822-2.712 11.211-4.867 15.084l-0.96 1.739-1.029-0.573c-3.55-1.979-6.903-3.848-11.716-3.848-0.386 0-0.782 0.012-1.187 0.036-7.221 0.441-12.035 4.537-15.551 7.528l-1.814 1.539z" fill="url(#o)"/>
  </g>
 </g>
 <g transform="translate(2.7467 3.0386)" fill="#0c1b33">
  <g transform="matrix(1.3333,0,0,-1.3333,67.389,38.308)">
   <path d="m0 0c-0.471 0-0.933-9e-3 -1.386-0.027-7.053-0.283-11.478-2.747-15.382-4.921l-1.74-0.97 0.962-1.744 0.482-0.869c2.089-3.755 4.249-7.637 4.491-13.744 0.189-4.612-0.7-10.003-2.32-14.071l-1.222-3.067 3.285 0.338c16.41 1.688 28.785 15.428 28.785 31.959 0 0.91-0.044 1.823-0.129 2.712l-0.116 1.199-1.113 0.458c-4.173 1.72-9.63 2.747-14.597 2.747m-1e-3 -2c4.45 0 9.643-0.868 13.836-2.596 0.08-0.83 0.12-1.67 0.12-2.52 0-15.59-11.83-28.41-26.99-29.97 1.82 4.57 2.65 10.26 2.46 14.89-0.28 7.07-2.92 11.33-5.22 15.5 3.86 2.15 7.99 4.41 14.49 4.67 0.426 0.017 0.862 0.026 1.304 0.026" fill="#0c1b33"/>
  </g>
  <g transform="matrix(1.3333,0,0,-1.3333,54.043,3.2959)">
   <path d="m0 0-0.738-0.865-0.387-0.452c-3.109-3.629-7.807-9.112-8.308-17.395-0.347-5.803 1.554-9.781 3.705-13.678l0.97-1.757 1.754 0.977c3.685 2.052 7.496 4.174 13.597 4.418 0.401 0.017 0.809 0.025 1.225 0.025 4.471 0 9.359-0.914 13.073-2.445l3.021-1.245-0.265 3.256c-1.189 14.587-12.097 26.5-26.526 28.969zm0.783-2.163c13.38-2.29 23.75-13.41 24.87-27.16-4.193 1.728-9.386 2.596-13.835 2.596-0.443 0-0.879-9e-3 -1.305-0.026-6.5-0.26-10.63-2.52-14.49-4.67-2.02 3.66-3.78 7.24-3.46 12.59 0.48 7.94 5.13 13.05 8.22 16.67" fill="#0c1b33"/>
  </g>
  <g transform="matrix(1.3333,0,0,-1.3333,46.162,1.3591)">
   <path d="m0 0c-7.741 0-15.219-2.788-21.055-7.85-5.777-5.011-9.585-11.915-10.723-19.441l-0.166-1.103 0.85-0.721 0.438-0.372c3.621-3.082 9.092-7.738 17.314-8.239 0.462-0.028 0.922-0.042 1.371-0.042 5.59 0 9.446 2.149 13.175 4.228l0.15 0.083 1.74 0.97-0.963 1.743c-1.995 3.615-3.499 6.757-3.215 11.505 0.42 6.941 4.427 11.618 7.353 15.032l0.392 0.459 2.263 2.65-3.43 0.617c-1.779 0.319-3.628 0.481-5.494 0.481m0-2c1.75 0 3.47-0.15 5.14-0.45-3.09-3.62-7.74-8.73-8.22-16.67-0.32-5.35 1.44-8.93 3.46-12.59-3.726-2.076-7.212-4.058-12.351-4.058-0.406 0-0.822 0.012-1.249 0.038-7.87 0.48-12.96 5.07-16.58 8.14 2.19 14.49 14.69 25.59 29.8 25.59" fill="#0c1b33"/>
  </g>
  <path d="m2.2839 34.565-0.70533 4.7427c-0.32 2.1533-0.48267 4.3227-0.48267 6.4453 0 23.631 19.224 42.853 42.853 42.853 1.612 0 3.0827-0.07867 4.496-0.244l1.58-0.184 0.588-1.4773c2.4573-6.168 3.7533-14 3.468-20.951-0.37333-9.4093-3.7107-15.408-6.656-20.703l-0.63333-1.1427-1.2933-2.344-2.34 1.3027-0.20133 0.11333c-4.776 2.6613-8.9013 4.96-14.969 4.96-0.492 0-0.99867-0.01467-1.5053-0.04533-9.184-0.56-15.407-5.856-19.951-9.7227l-0.59067-0.50267zm1.932 5.136c4.8267 4.0933 11.613 10.212 22.107 10.852 0.56933 0.03467 1.124 0.05067 1.6653 0.05067 6.8533 0 11.5-2.6413 16.468-5.4107 3.0667 5.56 6.5867 11.24 6.96 20.667 0.25333 6.1747-0.85333 13.761-3.28 19.855-1.3733 0.15867-2.7733 0.22533-4.1867 0.22533-22.2 0-40.187-17.985-40.187-40.187 0-2.052 0.16-4.0787 0.45333-6.052"/>
 </g>
 <g transform="translate(2.7467 3.0386)" opacity=".99">
  <g transform="matrix(1.3321,0,0,-1.3321,78.972,46.328)">
   <path d="m0 0c0-13.533-10.971-24.504-24.504-24.504-13.534 0-24.505 10.971-24.505 24.504s10.971 24.504 24.505 24.504c13.533 0 24.504-10.971 24.504-24.504" fill="#0c1b32"/>
  </g>
 </g>
 <g transform="matrix(1.7057 0 0 1.7057 -34.996 -10.458)" stroke="#000" stroke-width="1.3388" aria-label="Stem">
  <path d="m112.99 56.738q-4.7466 0-9.1281-1.5214-4.3206-1.5214-6.694-4.0164l1.7648-3.4687q2.3125 2.3125 6.1463 3.773 3.8338 1.3996 7.911 1.3996 5.7203 0 8.5804-2.069 2.8602-2.1299 2.8602-5.4769 0-2.5559-1.5822-4.0772-1.5214-1.5214-3.773-2.3125-2.2516-0.85196-6.268-1.8256-4.8075-1.2171-7.6676-2.3125-2.8602-1.1562-4.9292-3.4687-2.0082-2.3125-2.0082-6.268 0-3.2253 1.7039-5.842 1.7039-2.6776 5.2335-4.2598 3.5295-1.5822 8.763-1.5822 3.6512 0 7.1199 1.0345 3.5295 0.97367 6.0854 2.7384l-1.5214 3.5904q-2.6776-1.7648-5.7203-2.6167-3.0427-0.91281-5.9637-0.91281-5.5986 0-8.4587 2.1908-2.7993 2.1299-2.7993 5.5377 0 2.5559 1.5214 4.1381 1.5822 1.5214 3.8947 2.3733 2.3733 0.7911 6.3288 1.7648 4.6858 1.1562 7.5459 2.3125 2.921 1.0954 4.9292 3.4078 2.0082 2.2516 2.0082 6.1463 0 3.2253-1.7648 5.9029-1.7039 2.6167-5.2943 4.1989-3.5904 1.5214-8.8239 1.5214z"/>
  <path d="m154.63 54.425q-1.2171 1.0954-3.0427 1.7039-1.7648 0.54769-3.7121 0.54769-4.5032 0-6.9374-2.4342t-2.4342-6.8765v-19.352h-5.7203v-3.6512h5.7203v-6.9982h4.3206v6.9982h9.7367v3.6512h-9.7367v19.108q0 2.8601 1.3996 4.3815 1.4605 1.4605 4.1381 1.4605 1.3388 0 2.5559-0.42598 1.2779-0.42598 2.1908-1.2171z"/>
  <path d="m189.18 41.707h-26.776q0.36513 4.99 3.8338 8.0936 3.4687 3.0427 8.763 3.0427 2.9818 0 5.4769-1.0345 2.495-1.0954 4.3206-3.1644l2.4342 2.7993q-2.1299 2.5559-5.3552 3.8947-3.1644 1.3388-6.9982 1.3388-4.9292 0-8.763-2.069-3.773-2.1299-5.9029-5.842t-2.1299-8.3979 2.0082-8.3979q2.069-3.7121 5.5986-5.7811 3.5904-2.069 8.0328-2.069t7.9719 2.069q3.5296 2.069 5.5377 5.7811 2.0082 3.6513 2.0082 8.3979zm-15.457-13.875q-4.6249 0-7.7893 2.9819-3.1036 2.921-3.5295 7.6676h22.699q-0.42598-4.7466-3.5904-7.6676-3.1036-2.9819-7.7893-2.9819z"/>
  <path d="m237.95 24.12q6.0246 0 9.4324 3.4687 3.4687 3.4687 3.4687 10.224v18.561h-4.3206v-18.135q0-4.99-2.4342-7.6068-2.3733-2.6167-6.7548-2.6167-4.99 0-7.8502 3.1036-2.8601 3.0427-2.8601 8.4587v16.796h-4.3206v-18.135q0-4.99-2.4342-7.6068-2.3733-2.6167-6.8157-2.6167-4.9292 0-7.8502 3.1036-2.8602 3.0427-2.8602 8.4587v16.796h-4.3206v-32.009h4.1381v5.842q1.7039-2.921 4.7466-4.5032t6.9982-1.5822q4.0164 0 6.9374 1.7039 2.9819 1.7039 4.4424 5.0509 1.7648-3.1644 5.0509-4.9292 3.347-1.8256 7.6068-1.8256z"/>
 </g>
</svg>
